<svg xmlns="http://www.w3.org/2000/svg" xmlns:xlink="http://www.w3.org/1999/xlink" width="500" zoomAndPan="magnify" viewBox="0 0 375 374.999991" height="500" preserveAspectRatio="xMidYMid meet" version="1.0"><defs><g/></defs><path stroke-linecap="butt" transform="matrix(0.736809, 0, 0, 0.736809, 15.850061, 116.628369)" fill="none" stroke-linejoin="miter" d="M 92.392688 72.621785 C 93.092497 67.648902 93.670369 64.346017 94.126305 62.718431 C 94.67767 60.53418 95.568335 58.938404 96.803604 57.936405 C 97.826809 57.157073 99.385474 56.653423 101.468995 56.425455 C 102.322549 56.255804 103.472992 56.170979 104.915022 56.170979 C 106.357052 56.170979 108.122479 56.170979 110.206 56.170979 L 153.466901 56.170979 C 152.76179 61.461957 152.099093 65.003413 151.473506 66.784744 C 150.789602 68.968995 149.623254 70.485247 147.974463 71.338802 C 147.518527 71.56677 146.998972 71.736421 146.410496 71.853055 C 145.822021 71.964389 145.101006 72.107531 144.247451 72.277182 C 142.858437 72.50515 140.260663 72.621785 136.448826 72.621785 L 113.59371 72.621785 C 112.814378 72.621785 112.135776 72.621785 111.5473 72.621785 C 110.974729 72.621785 110.566508 72.658896 110.322635 72.733118 C 109.792477 72.733118 109.410763 72.923975 109.182795 73.300387 C 109.013145 73.475339 108.848795 73.825243 108.700351 74.355402 C 108.700351 74.678798 108.583716 75.495241 108.355748 76.804732 L 133.999495 76.804732 C 136.332191 76.804732 138.261967 76.804732 139.778219 76.804732 C 141.294471 76.804732 142.3972 76.889557 143.081104 77.059208 C 145.58345 77.287176 147.264051 77.902159 148.117605 78.90946 C 148.891636 79.763014 149.283953 81.279266 149.283953 83.463518 L 149.283953 84.147422 C 149.283953 84.84723 149.199128 85.960562 149.024176 87.476814 C 148.875732 88.993067 148.647764 90.91754 148.345573 93.255538 L 147.746495 97.549818 C 147.444305 100.131688 147.110305 102.257622 146.749798 103.92762 C 146.410496 105.597618 146.124211 106.854093 145.896243 107.712949 C 145.419101 109.340534 144.873038 110.549295 144.247451 111.323325 C 143.314373 112.256404 141.999581 112.956212 140.28717 113.433355 C 139.51314 113.507577 138.145332 113.603005 136.189048 113.714338 C 134.253971 113.830973 131.820546 113.883989 128.878168 113.883989 L 103.234421 113.883989 C 100.201917 113.883989 97.741983 113.830973 95.865224 113.714338 C 94.004369 113.603005 92.647164 113.507577 91.79361 113.433355 C 90.314469 112.956212 89.270057 112.330626 88.665677 111.551293 C 88.114312 110.697739 87.83863 109.377645 87.83863 107.596314 C 87.83863 106.042951 88.188535 102.692352 88.893645 97.549818 L 127.224075 97.549818 C 127.929185 97.549818 128.507058 97.533913 128.962994 97.491501 C 129.434834 97.45439 129.758231 97.438485 129.927881 97.438485 C 130.309595 97.358961 130.648896 97.173406 130.956388 96.865914 C 131.279784 96.394074 131.438832 95.927534 131.438832 95.471598 C 131.592578 94.999758 131.703911 94.257536 131.778133 93.255538 L 103.234421 93.255538 C 101.681058 93.255538 100.31325 93.234331 99.136299 93.19722 C 97.980555 93.160109 97.047476 93.101792 96.347668 93.02757 C 94.168718 92.778395 92.572942 92.227031 91.565642 91.373476 C 90.791611 90.4457 90.399294 89.125606 90.399294 87.418497 L 90.399294 86.024181 C 90.55304 85.244849 90.743897 84.099707 90.971865 82.578154 C 91.215737 81.061901 91.49142 79.137428 91.79361 76.804732 Z M 158.598831 72.621785 C 159.054767 69.128043 159.404671 66.832458 159.653846 65.735031 C 160.33775 62.167067 161.265526 59.791959 162.442477 58.620309 C 163.524 57.459263 165.193998 56.770058 167.452471 56.54209 C 168.306026 56.367137 169.509485 56.282312 171.062848 56.282312 C 172.621513 56.282312 174.567193 56.282312 176.899888 56.282312 L 203.709983 56.282312 C 206.572837 56.282312 208.916136 56.330026 210.739879 56.425455 C 212.579528 56.504979 213.889019 56.653423 214.663049 56.881391 C 216.067968 57.109359 217.075269 57.724342 217.679649 58.731643 C 218.231013 59.510975 218.506696 60.799259 218.506696 62.601797 L 218.506696 63.768144 C 218.506696 65.231381 218.156791 68.17906 217.451681 72.621785 L 213.952638 97.549818 C 213.422479 101.685051 212.95594 104.521397 212.558322 106.058856 C 212.102386 108.243107 211.524513 109.833581 210.824705 110.840882 C 209.97115 112.171578 208.412485 113.072847 206.154012 113.544688 C 205.379981 113.61891 204.13411 113.714338 202.427001 113.830973 C 200.719892 113.942306 198.53564 114.000624 195.879548 114.000624 L 168.502184 114.000624 C 166.015743 114.000624 163.958729 113.942306 162.325842 113.830973 C 160.698257 113.714338 159.452386 113.61891 158.598831 113.544688 C 156.891722 113.221291 155.651152 112.558594 154.87182 111.551293 C 154.622645 111.079453 154.426487 110.517485 154.272741 109.875994 C 154.124297 109.207995 154.044773 108.48698 154.044773 107.712949 L 154.044773 106.313331 C 154.198519 104.759968 154.548423 101.838797 155.099788 97.549818 C 155.327756 96.01236 155.614041 94.1356 155.953342 91.914238 C 156.31385 89.698177 156.68496 87.153418 157.061373 84.290564 C 157.538515 81.326981 157.888419 78.898856 158.116387 77.00089 C 158.36026 75.08702 158.524609 73.623783 158.598831 72.621785 Z M 180.854868 72.621785 C 179.927091 72.621785 179.147759 72.621785 178.522172 72.621785 C 177.896586 72.621785 177.430046 72.658896 177.127856 72.733118 C 176.348524 72.886864 175.807763 73.120133 175.505573 73.44353 C 175.256398 73.671498 175.023129 74.328894 174.795161 75.410416 C 174.795161 75.484638 174.773954 75.664892 174.736843 75.951177 C 174.699732 76.216256 174.641415 76.539653 174.567193 76.916065 L 171.635419 97.549818 L 195.879548 97.549818 C 196.430913 97.396072 196.780817 97.247628 196.934563 97.093882 C 197.257959 96.791692 197.417007 96.441788 197.417007 96.044169 C 197.570752 95.816201 197.682086 95.492805 197.761609 95.07398 C 197.835831 94.63925 197.910054 94.066679 197.989577 93.366871 L 200.921352 72.621785 Z M 242.63419 56.282312 L 286.46236 56.282312 C 286.16017 58.620309 285.863281 60.560688 285.576996 62.119353 C 285.311917 63.672716 285.068044 64.881476 284.840076 65.735031 C 284.362934 67.988203 283.588903 69.583979 282.507381 70.511755 C 281.250906 71.614484 279.231004 72.277182 276.442372 72.50515 C 275.668341 72.50515 274.555009 72.526356 273.112979 72.563467 C 271.670949 72.600578 269.831301 72.658896 267.594033 72.733118 L 246.705805 72.733118 C 246.398313 72.733118 246.08552 72.717213 245.762123 72.6748 C 245.459933 72.637689 245.194854 72.621785 244.966886 72.621785 C 244.267077 72.621785 243.763427 72.696007 243.461237 72.849753 C 242.984095 72.849753 242.63419 72.961086 242.406222 73.189054 C 242.178254 73.438228 241.939683 73.910069 241.695811 74.609877 C 241.695811 74.991591 241.579176 75.760321 241.351208 76.916065 L 238.451243 97.692961 L 280.625319 97.692961 C 280.323129 100.099879 280.031542 102.125083 279.745257 103.752668 C 279.480178 105.385555 279.231004 106.631426 279.003036 107.484981 C 278.531195 109.648026 277.714751 111.190786 276.559007 112.123864 C 275.477484 112.993323 273.770375 113.544688 271.432378 113.772656 C 270.658347 113.846878 269.491999 113.905195 267.933335 113.942306 C 266.379971 113.979417 264.39718 114.000624 261.984961 114.000624 L 235.85877 114.000624 C 233.070138 114.000624 230.785157 113.942306 229.003826 113.830973 C 227.217193 113.714338 225.897099 113.61891 225.043545 113.544688 C 223.394753 113.221291 222.228405 112.558594 221.544501 111.551293 C 221.300629 111.079453 221.099169 110.517485 220.945423 109.875994 C 220.796979 109.207995 220.717455 108.48698 220.717455 107.712949 L 220.717455 106.885902 C 220.796979 106.032348 220.929518 104.844794 221.120375 103.328541 C 221.327137 101.812289 221.581612 99.930228 221.889104 97.692961 C 222.117072 96.288042 222.382151 94.559727 222.684341 92.513316 C 223.007738 90.4457 223.320531 88.006972 223.622721 85.197135 C 224.02034 82.408503 224.370244 79.990982 224.677736 77.93927 C 225.001132 75.871654 225.234402 74.138037 225.388148 72.733118 C 225.76456 70.400422 226.072052 68.475948 226.30002 66.954395 C 226.543892 65.438142 226.708241 64.293001 226.782463 63.513669 C 227.40805 61.027227 228.224493 59.320118 229.231794 58.392341 C 230.313316 57.459263 231.86668 56.881391 233.897185 56.653423 C 235.530072 56.40955 238.44064 56.282312 242.63419 56.282312 Z M 314.905342 32.409293 L 312.228043 51.988032 L 295.665904 51.988032 L 296.005206 48.828289 C 296.402824 46.591022 296.715617 44.746072 296.943585 43.304042 C 297.19276 41.867314 297.388918 40.791093 297.542664 40.091284 C 297.9986 37.679065 298.650695 36.009067 299.504249 35.08129 C 300.606978 33.830117 302.160341 33.050785 304.174942 32.748594 C 305.956273 32.520626 309.53484 32.409293 314.905342 32.409293 Z M 295.093334 56.170979 L 311.628965 56.170979 L 305.823734 97.692961 C 305.500337 99.856006 305.224655 101.674448 305.001988 103.158891 C 304.774021 104.638032 304.535449 105.767269 304.286275 106.541299 C 303.830339 108.953519 303.056308 110.697739 301.953579 111.779261 C 300.723613 112.88199 298.862758 113.544688 296.376316 113.772656 C 295.596984 113.846878 294.488953 113.905195 293.046923 113.942306 C 291.604893 113.979417 289.839467 114.000624 287.750644 114.000624 L 282.258206 114.000624 C 282.963317 113.375037 283.530586 112.871387 283.965315 112.489673 C 284.38414 112.092055 284.707537 111.779261 284.935505 111.551293 C 285.95871 110.549295 286.584296 109.881295 286.812264 109.557899 C 287.193978 109.027741 287.46966 108.449869 287.639311 107.824282 C 287.867279 107.426663 288.021025 106.647331 288.095247 105.491586 Z M 365.731598 56.170979 C 369.145816 56.170979 371.558036 56.292915 372.962954 56.54209 C 374.670064 56.770058 375.836411 57.157073 376.461998 57.708437 C 377.617743 58.482468 378.195615 60.115355 378.195615 62.601797 C 378.195615 62.829765 378.195615 63.068336 378.195615 63.312208 C 378.195615 63.540176 378.158504 63.842367 378.084282 64.22408 C 378.084282 64.923889 378.01006 65.978904 377.856314 67.383823 C 377.702568 68.767535 377.469298 70.511755 377.145902 72.621785 L 375.29565 85.68488 L 373.646858 97.549818 C 373.339367 100.359656 373.010669 102.634034 372.650161 104.378254 C 372.305558 106.127776 371.982162 107.426663 371.679972 108.280218 C 371.208131 109.913105 370.428799 111.153675 369.347276 112.007229 C 368.493722 112.632816 367.210739 113.147069 365.50363 113.544688 C 364.729599 113.61891 363.398902 113.714338 361.522143 113.830973 C 359.661288 113.942306 357.249069 114.000624 354.290786 114.000624 L 329.01815 114.000624 C 326.213614 114.000624 323.918029 113.942306 322.131396 113.830973 C 320.350065 113.714338 319.029972 113.61891 318.176417 113.544688 C 316.54353 113.147069 315.377182 112.558594 314.677374 111.779261 C 314.051787 110.925707 313.738994 109.568502 313.738994 107.712949 L 313.738994 106.997235 C 313.887438 105.36965 314.237342 102.215209 314.788707 97.549818 L 315.472611 93.255538 C 315.796007 91.145508 316.071689 89.401288 316.299657 88.017576 C 316.527625 86.612657 316.67607 85.557642 316.755593 84.857833 C 317.301656 82.143424 318.080989 80.277267 319.088289 79.248761 C 320.185716 78.167238 321.70727 77.515144 323.642347 77.287176 C 325.275234 77.038002 328.270627 76.916065 332.633828 76.916065 L 356.994593 76.916065 C 357.450529 76.916065 357.848147 76.90016 358.19275 76.857748 C 358.553258 76.820637 358.770622 76.804732 358.844844 76.804732 C 359.242463 76.725208 359.592367 76.539653 359.899859 76.232161 C 360.127827 76.004193 360.23916 75.654289 360.23916 75.182448 C 360.392906 74.705306 360.514842 73.851751 360.610271 72.621785 L 334.940016 72.621785 C 332.851193 72.621785 331.085767 72.600578 329.643737 72.563467 C 328.201707 72.526356 327.130787 72.468039 326.430979 72.393817 C 324.416378 72.07042 322.984951 71.36531 322.131396 70.283787 C 321.431588 69.202265 320.965049 67.420934 320.737081 64.934492 C 320.737081 64.234684 320.721176 63.301605 320.678763 62.145861 C 320.641652 60.96891 320.625748 59.643514 320.625748 58.164373 L 320.625748 56.170979 Z M 334.712048 93.255538 C 333.704748 93.255538 333.126875 93.292649 332.97313 93.366871 C 332.750463 93.366871 332.474781 93.520617 332.151384 93.822807 C 331.997639 93.992457 331.849194 94.580933 331.695448 95.588233 C 331.695448 95.964645 331.573512 96.622041 331.324338 97.549818 L 354.179453 97.549818 C 354.651294 97.549818 355.059516 97.533913 355.404118 97.491501 C 355.764626 97.45439 355.981991 97.438485 356.056213 97.438485 C 356.512149 97.358961 356.777228 97.210517 356.85145 96.982549 C 357.026402 96.828803 357.18545 96.441788 357.339195 95.816201 C 357.48764 95.339059 357.604275 94.485504 357.678497 93.255538 Z M 334.712048 93.255538 " stroke="#08070c" stroke-width="13.114575" stroke-opacity="1" stroke-miterlimit="4"/><g fill="#ede8dd" fill-opacity="1"><g transform="translate(79.710637, 200.62454)"><g><path d="M 4.203125 -30.484375 C 4.722656 -34.148438 5.15625 -36.585938 5.5 -37.796875 C 5.894531 -39.398438 6.550781 -40.570312 7.46875 -41.3125 C 8.21875 -41.882812 9.363281 -42.257812 10.90625 -42.4375 C 11.539062 -42.550781 12.382812 -42.609375 13.4375 -42.609375 C 14.5 -42.609375 15.800781 -42.609375 17.34375 -42.609375 L 49.21875 -42.609375 C 48.695312 -38.710938 48.207031 -36.101562 47.75 -34.78125 C 47.238281 -33.175781 46.378906 -32.0625 45.171875 -31.4375 C 44.828125 -31.257812 44.441406 -31.128906 44.015625 -31.046875 C 43.585938 -30.960938 43.0625 -30.863281 42.4375 -30.75 C 41.40625 -30.570312 39.484375 -30.484375 36.671875 -30.484375 L 19.84375 -30.484375 C 19.269531 -30.484375 18.765625 -30.484375 18.328125 -30.484375 C 17.898438 -30.484375 17.601562 -30.457031 17.4375 -30.40625 C 17.03125 -30.40625 16.742188 -30.257812 16.578125 -29.96875 C 16.460938 -29.851562 16.347656 -29.597656 16.234375 -29.203125 C 16.234375 -28.972656 16.144531 -28.375 15.96875 -27.40625 L 34.875 -27.40625 C 36.59375 -27.40625 38.007812 -27.40625 39.125 -27.40625 C 40.238281 -27.40625 41.054688 -27.347656 41.578125 -27.234375 C 43.398438 -27.054688 44.628906 -26.597656 45.265625 -25.859375 C 45.835938 -25.222656 46.125 -24.101562 46.125 -22.5 L 46.125 -21.984375 C 46.125 -21.472656 46.066406 -20.65625 45.953125 -19.53125 C 45.835938 -18.414062 45.664062 -17 45.4375 -15.28125 L 45 -12.109375 C 44.769531 -10.222656 44.523438 -8.660156 44.265625 -7.421875 C 44.015625 -6.191406 43.800781 -5.265625 43.625 -4.640625 C 43.28125 -3.429688 42.882812 -2.539062 42.4375 -1.96875 C 41.75 -1.28125 40.773438 -0.765625 39.515625 -0.421875 C 38.941406 -0.367188 37.9375 -0.296875 36.5 -0.203125 C 35.070312 -0.117188 33.269531 -0.078125 31.09375 -0.078125 L 12.203125 -0.078125 C 9.960938 -0.078125 8.15625 -0.117188 6.78125 -0.203125 C 5.40625 -0.296875 4.40625 -0.367188 3.78125 -0.421875 C 2.6875 -0.765625 1.910156 -1.222656 1.453125 -1.796875 C 1.054688 -2.429688 0.859375 -3.40625 0.859375 -4.71875 C 0.859375 -5.863281 1.113281 -8.328125 1.625 -12.109375 L 29.890625 -12.109375 C 30.398438 -12.109375 30.828125 -12.125 31.171875 -12.15625 C 31.515625 -12.1875 31.742188 -12.203125 31.859375 -12.203125 C 32.148438 -12.253906 32.410156 -12.394531 32.640625 -12.625 C 32.867188 -12.96875 32.984375 -13.3125 32.984375 -13.65625 C 33.097656 -14 33.179688 -14.539062 33.234375 -15.28125 L 12.203125 -15.28125 C 11.054688 -15.28125 10.050781 -15.296875 9.1875 -15.328125 C 8.332031 -15.359375 7.644531 -15.398438 7.125 -15.453125 C 5.519531 -15.628906 4.347656 -16.03125 3.609375 -16.65625 C 3.035156 -17.34375 2.75 -18.316406 2.75 -19.578125 L 2.75 -20.609375 C 2.863281 -21.179688 3.003906 -22.023438 3.171875 -23.140625 C 3.347656 -24.265625 3.550781 -25.6875 3.78125 -27.40625 Z M 4.203125 -30.484375 "/></g></g></g><g fill="#ede8dd" fill-opacity="1"><g transform="translate(128.492935, 200.62454)"><g><path d="M 4.203125 -30.484375 C 4.546875 -33.066406 4.804688 -34.757812 4.984375 -35.5625 C 5.492188 -38.195312 6.179688 -39.941406 7.046875 -40.796875 C 7.847656 -41.660156 9.078125 -42.175781 10.734375 -42.34375 C 11.367188 -42.457031 12.253906 -42.515625 13.390625 -42.515625 C 14.535156 -42.515625 15.96875 -42.515625 17.6875 -42.515625 L 37.453125 -42.515625 C 39.566406 -42.515625 41.296875 -42.484375 42.640625 -42.421875 C 43.984375 -42.367188 44.941406 -42.257812 45.515625 -42.09375 C 46.546875 -41.914062 47.289062 -41.457031 47.75 -40.71875 C 48.15625 -40.144531 48.359375 -39.195312 48.359375 -37.875 L 48.359375 -37.015625 C 48.359375 -35.929688 48.097656 -33.753906 47.578125 -30.484375 L 45 -12.109375 C 44.601562 -9.078125 44.257812 -6.988281 43.96875 -5.84375 C 43.625 -4.238281 43.195312 -3.0625 42.6875 -2.3125 C 42.0625 -1.34375 40.914062 -0.6875 39.25 -0.34375 C 38.675781 -0.28125 37.757812 -0.207031 36.5 -0.125 C 35.238281 -0.0390625 33.632812 0 31.6875 0 L 11.515625 0 C 9.679688 0 8.160156 -0.0390625 6.953125 -0.125 C 5.753906 -0.207031 4.835938 -0.28125 4.203125 -0.34375 C 2.941406 -0.570312 2.023438 -1.054688 1.453125 -1.796875 C 1.285156 -2.140625 1.144531 -2.554688 1.03125 -3.046875 C 0.914062 -3.535156 0.859375 -4.066406 0.859375 -4.640625 L 0.859375 -5.671875 C 0.972656 -6.816406 1.226562 -8.960938 1.625 -12.109375 C 1.800781 -13.253906 2.015625 -14.640625 2.265625 -16.265625 C 2.523438 -17.898438 2.800781 -19.78125 3.09375 -21.90625 C 3.4375 -24.082031 3.691406 -25.867188 3.859375 -27.265625 C 4.035156 -28.671875 4.148438 -29.742188 4.203125 -30.484375 Z M 20.609375 -30.484375 C 19.921875 -30.484375 19.347656 -30.484375 18.890625 -30.484375 C 18.429688 -30.484375 18.085938 -30.457031 17.859375 -30.40625 C 17.285156 -30.289062 16.882812 -30.117188 16.65625 -29.890625 C 16.488281 -29.710938 16.316406 -29.226562 16.140625 -28.4375 C 16.140625 -28.375 16.125 -28.242188 16.09375 -28.046875 C 16.070312 -27.847656 16.03125 -27.601562 15.96875 -27.3125 L 13.828125 -12.109375 L 31.6875 -12.109375 C 32.09375 -12.222656 32.351562 -12.335938 32.46875 -12.453125 C 32.695312 -12.679688 32.8125 -12.941406 32.8125 -13.234375 C 32.925781 -13.398438 33.007812 -13.640625 33.0625 -13.953125 C 33.125 -14.265625 33.179688 -14.679688 33.234375 -15.203125 L 35.390625 -30.484375 Z M 20.609375 -30.484375 "/></g></g></g><g fill="#ede8dd" fill-opacity="1"><g transform="translate(177.618769, 200.62454)"><g><path d="M 17 -42.515625 L 49.296875 -42.515625 C 49.066406 -40.796875 48.851562 -39.363281 48.65625 -38.21875 C 48.457031 -37.070312 48.269531 -36.1875 48.09375 -35.5625 C 47.75 -33.894531 47.175781 -32.71875 46.375 -32.03125 C 45.457031 -31.226562 43.972656 -30.742188 41.921875 -30.578125 C 41.347656 -30.578125 40.53125 -30.5625 39.46875 -30.53125 C 38.40625 -30.5 37.046875 -30.457031 35.390625 -30.40625 L 20.015625 -30.40625 C 19.785156 -30.40625 19.554688 -30.414062 19.328125 -30.4375 C 19.097656 -30.46875 18.894531 -30.484375 18.71875 -30.484375 C 18.207031 -30.484375 17.835938 -30.425781 17.609375 -30.3125 C 17.265625 -30.3125 17.003906 -30.226562 16.828125 -30.0625 C 16.660156 -29.882812 16.488281 -29.539062 16.3125 -29.03125 C 16.3125 -28.738281 16.226562 -28.164062 16.0625 -27.3125 L 13.921875 -12.03125 L 45 -12.03125 C 44.769531 -10.25 44.554688 -8.753906 44.359375 -7.546875 C 44.160156 -6.347656 43.972656 -5.4375 43.796875 -4.8125 C 43.453125 -3.207031 42.851562 -2.0625 42 -1.375 C 41.195312 -0.738281 39.9375 -0.335938 38.21875 -0.171875 C 37.644531 -0.109375 36.785156 -0.0625 35.640625 -0.03125 C 34.492188 -0.0078125 33.035156 0 31.265625 0 L 12.03125 0 C 9.96875 0 8.273438 -0.0390625 6.953125 -0.125 C 5.640625 -0.207031 4.664062 -0.28125 4.03125 -0.34375 C 2.832031 -0.570312 1.972656 -1.054688 1.453125 -1.796875 C 1.285156 -2.140625 1.144531 -2.554688 1.03125 -3.046875 C 0.914062 -3.535156 0.859375 -4.066406 0.859375 -4.640625 L 0.859375 -5.234375 C 0.910156 -5.867188 1.007812 -6.742188 1.15625 -7.859375 C 1.300781 -8.972656 1.488281 -10.363281 1.71875 -12.03125 C 1.882812 -13.0625 2.082031 -14.332031 2.3125 -15.84375 C 2.539062 -17.363281 2.769531 -19.15625 3 -21.21875 C 3.289062 -23.28125 3.550781 -25.066406 3.78125 -26.578125 C 4.007812 -28.097656 4.179688 -29.375 4.296875 -30.40625 C 4.578125 -32.125 4.800781 -33.539062 4.96875 -34.65625 C 5.144531 -35.769531 5.265625 -36.613281 5.328125 -37.1875 C 5.785156 -39.019531 6.382812 -40.28125 7.125 -40.96875 C 7.925781 -41.65625 9.070312 -42.085938 10.5625 -42.265625 C 11.769531 -42.429688 13.914062 -42.515625 17 -42.515625 Z M 17 -42.515625 "/></g></g></g><g fill="#ede8dd" fill-opacity="1"><g transform="translate(226.401067, 200.62454)"><g><path d="M 21.46875 -60.125 L 19.5 -45.6875 L 7.296875 -45.6875 L 7.5625 -48.015625 C 7.84375 -49.671875 8.066406 -51.03125 8.234375 -52.09375 C 8.410156 -53.15625 8.554688 -53.941406 8.671875 -54.453125 C 9.015625 -56.234375 9.503906 -57.460938 10.140625 -58.140625 C 10.941406 -59.054688 12.085938 -59.628906 13.578125 -59.859375 C 14.890625 -60.035156 17.519531 -60.125 21.46875 -60.125 Z M 6.875 -42.609375 L 19.0625 -42.609375 L 14.765625 -12.03125 C 14.535156 -10.425781 14.335938 -9.078125 14.171875 -7.984375 C 14.003906 -6.898438 13.832031 -6.070312 13.65625 -5.5 C 13.3125 -3.71875 12.738281 -2.425781 11.9375 -1.625 C 11.019531 -0.820312 9.644531 -0.335938 7.8125 -0.171875 C 7.238281 -0.109375 6.421875 -0.0625 5.359375 -0.03125 C 4.304688 -0.0078125 3.003906 0 1.453125 0 L -2.578125 0 C -2.054688 -0.457031 -1.640625 -0.828125 -1.328125 -1.109375 C -1.015625 -1.398438 -0.769531 -1.628906 -0.59375 -1.796875 C 0.144531 -2.546875 0.597656 -3.035156 0.765625 -3.265625 C 1.054688 -3.660156 1.257812 -4.085938 1.375 -4.546875 C 1.539062 -4.835938 1.65625 -5.410156 1.71875 -6.265625 Z M 6.875 -42.609375 "/></g></g></g><g fill="#ede8dd" fill-opacity="1"><g transform="translate(246.154462, 200.62454)"><g><path d="M 39.171875 -42.609375 C 41.679688 -42.609375 43.453125 -42.519531 44.484375 -42.34375 C 45.742188 -42.175781 46.601562 -41.890625 47.0625 -41.484375 C 47.925781 -40.910156 48.359375 -39.707031 48.359375 -37.875 C 48.359375 -37.707031 48.359375 -37.535156 48.359375 -37.359375 C 48.359375 -37.191406 48.328125 -36.960938 48.265625 -36.671875 C 48.265625 -36.160156 48.207031 -35.390625 48.09375 -34.359375 C 47.976562 -33.328125 47.804688 -32.035156 47.578125 -30.484375 L 46.203125 -20.875 L 45 -12.109375 C 44.769531 -10.046875 44.523438 -8.367188 44.265625 -7.078125 C 44.015625 -5.796875 43.773438 -4.835938 43.546875 -4.203125 C 43.203125 -3.003906 42.628906 -2.085938 41.828125 -1.453125 C 41.203125 -0.992188 40.257812 -0.625 39 -0.34375 C 38.425781 -0.28125 37.453125 -0.207031 36.078125 -0.125 C 34.703125 -0.0390625 32.925781 0 30.75 0 L 12.109375 0 C 10.046875 0 8.351562 -0.0390625 7.03125 -0.125 C 5.71875 -0.207031 4.75 -0.28125 4.125 -0.34375 C 2.914062 -0.625 2.054688 -1.050781 1.546875 -1.625 C 1.085938 -2.257812 0.859375 -3.265625 0.859375 -4.640625 L 0.859375 -5.15625 C 0.972656 -6.351562 1.226562 -8.671875 1.625 -12.109375 L 2.140625 -15.28125 C 2.367188 -16.832031 2.566406 -18.125 2.734375 -19.15625 C 2.910156 -20.1875 3.03125 -20.957031 3.09375 -21.46875 C 3.488281 -23.476562 4.0625 -24.851562 4.8125 -25.59375 C 5.613281 -26.394531 6.726562 -26.882812 8.15625 -27.0625 C 9.363281 -27.226562 11.566406 -27.3125 14.765625 -27.3125 L 32.71875 -27.3125 C 33.0625 -27.3125 33.363281 -27.328125 33.625 -27.359375 C 33.882812 -27.390625 34.039062 -27.40625 34.09375 -27.40625 C 34.382812 -27.457031 34.644531 -27.597656 34.875 -27.828125 C 35.039062 -28.003906 35.125 -28.257812 35.125 -28.59375 C 35.238281 -28.9375 35.328125 -29.566406 35.390625 -30.484375 L 16.484375 -30.484375 C 14.941406 -30.484375 13.640625 -30.5 12.578125 -30.53125 C 11.523438 -30.5625 10.738281 -30.601562 10.21875 -30.65625 C 8.726562 -30.882812 7.671875 -31.398438 7.046875 -32.203125 C 6.523438 -33.003906 6.179688 -34.320312 6.015625 -36.15625 C 6.015625 -36.675781 6 -37.363281 5.96875 -38.21875 C 5.9375 -39.082031 5.921875 -40.054688 5.921875 -41.140625 L 5.921875 -42.609375 Z M 16.3125 -15.28125 C 15.570312 -15.28125 15.144531 -15.253906 15.03125 -15.203125 C 14.851562 -15.203125 14.648438 -15.085938 14.421875 -14.859375 C 14.316406 -14.742188 14.207031 -14.316406 14.09375 -13.578125 C 14.09375 -13.285156 14.003906 -12.796875 13.828125 -12.109375 L 30.65625 -12.109375 C 31 -12.109375 31.300781 -12.125 31.5625 -12.15625 C 31.820312 -12.1875 31.976562 -12.203125 32.03125 -12.203125 C 32.375 -12.253906 32.578125 -12.367188 32.640625 -12.546875 C 32.753906 -12.660156 32.867188 -12.945312 32.984375 -13.40625 C 33.097656 -13.75 33.179688 -14.375 33.234375 -15.28125 Z M 16.3125 -15.28125 "/></g></g></g><g fill="#08070c" fill-opacity="1"><g transform="translate(289.346119, 210.737245)"><g><path d="M 8.03125 0.25 C 6.894531 0.25 5.84375 0.0859375 4.875 -0.234375 C 3.90625 -0.566406 3.117188 -1.070312 2.515625 -1.75 C 1.921875 -2.4375 1.625 -3.285156 1.625 -4.296875 C 1.625 -5.117188 1.867188 -5.894531 2.359375 -6.625 C 2.847656 -7.363281 3.59375 -7.960938 4.59375 -8.421875 C 5.59375 -8.878906 6.820312 -9.109375 8.28125 -9.109375 C 9.300781 -9.109375 10.296875 -8.972656 11.265625 -8.703125 C 12.234375 -8.441406 12.988281 -8.15625 13.53125 -7.84375 L 13.015625 -5.28125 C 12.566406 -5.644531 11.910156 -5.972656 11.046875 -6.265625 C 10.191406 -6.554688 9.289062 -6.703125 8.34375 -6.703125 C 7.601562 -6.703125 6.972656 -6.597656 6.453125 -6.390625 C 5.941406 -6.191406 5.554688 -5.914062 5.296875 -5.5625 C 5.046875 -5.207031 4.921875 -4.804688 4.921875 -4.359375 C 4.921875 -3.910156 5.066406 -3.519531 5.359375 -3.1875 C 5.648438 -2.851562 6.054688 -2.597656 6.578125 -2.421875 C 7.097656 -2.242188 7.707031 -2.15625 8.40625 -2.15625 C 8.945312 -2.15625 9.410156 -2.179688 9.796875 -2.234375 C 10.179688 -2.296875 10.453125 -2.363281 10.609375 -2.4375 L 10.6875 -2.84375 L 7.25 -2.84375 L 7.609375 -4.6875 L 12.921875 -4.6875 L 12.109375 -0.515625 C 11.742188 -0.328125 11.191406 -0.15625 10.453125 0 C 9.722656 0.164062 8.914062 0.25 8.03125 0.25 Z M 8.03125 0.25 "/></g></g></g><g fill="#08070c" fill-opacity="1"><g transform="translate(301.300575, 210.737245)"><g><path d="M 3.984375 0 L 0.953125 0 L 2.671875 -8.859375 L 7.671875 -8.859375 L 9.09375 -2.78125 L 9.21875 -2.78125 L 10.390625 -8.859375 L 13.421875 -8.859375 L 11.703125 0 L 6.703125 0 L 5.296875 -6.078125 L 5.15625 -6.078125 Z M 3.984375 0 "/></g></g></g></svg>