<svg xmlns="http://www.w3.org/2000/svg" xmlns:xlink="http://www.w3.org/1999/xlink" width="500" zoomAndPan="magnify" viewBox="0 0 375 374.999991" height="500" preserveAspectRatio="xMidYMid meet" version="1.0"><defs><g/></defs><path stroke-linecap="butt" transform="matrix(0.75, 0, 0, 0.75, -15.419425, 51.820228)" fill="none" stroke-linejoin="miter" d="M 204.934247 148.385539 C 206.350914 138.343872 207.522789 131.671997 208.439455 128.375121 C 209.554039 123.968871 211.356122 120.744913 213.845706 118.713662 C 215.918622 117.145954 219.059248 116.125121 223.277998 115.666787 C 225.001956 115.323037 227.319665 115.151162 230.236332 115.151162 C 233.14779 115.151162 236.715499 115.151162 240.929041 115.151162 L 328.340505 115.151162 C 326.91863 125.843871 325.580088 132.994913 324.314463 136.59908 C 322.934254 141.010539 320.574879 144.073039 317.241546 145.802206 C 316.319671 146.260539 315.267587 146.604289 314.080087 146.833456 C 312.887379 147.067831 311.434254 147.354289 309.705087 147.698039 C 306.908212 148.156373 301.658211 148.385539 293.949878 148.385539 L 247.772791 148.385539 C 246.205083 148.385539 244.824874 148.385539 243.632166 148.385539 C 242.486333 148.385539 241.658207 148.463664 241.163416 148.619914 C 240.090499 148.619914 239.319666 149.000123 238.861332 149.765748 C 238.517582 150.114706 238.189457 150.82304 237.882166 151.895956 C 237.882166 152.546998 237.652999 154.19804 237.194666 156.838665 L 289.007169 156.838665 C 293.720711 156.838665 297.611336 156.838665 300.679045 156.838665 C 303.746753 156.838665 305.970712 157.015748 307.35092 157.359498 C 312.408212 157.817832 315.804046 159.062623 317.528004 161.099082 C 319.100921 162.82304 319.887379 165.890749 319.887379 170.296999 L 319.887379 171.677208 C 319.887379 173.093874 319.715504 175.338666 319.366546 178.406375 C 319.059254 181.474083 318.600921 185.364708 317.986338 190.07825 L 316.778004 198.760543 C 316.168629 203.974085 315.496754 208.27096 314.767587 211.640752 C 314.080087 215.015752 313.501962 217.567836 313.043629 219.291794 C 312.085295 222.588669 310.970712 225.020961 309.705087 226.593878 C 307.830087 228.474086 305.16342 229.890753 301.715503 230.849086 C 300.142586 231.005336 297.382169 231.192836 293.434253 231.427211 C 289.522794 231.656378 284.59571 231.770961 278.653002 231.770961 L 226.840498 231.770961 C 220.710289 231.770961 215.746747 231.656378 211.949872 231.427211 C 208.194664 231.192836 205.449872 231.005336 203.725913 230.849086 C 200.73633 229.890753 198.626955 228.625128 197.397788 227.052211 C 196.288413 225.328253 195.731121 222.666794 195.731121 219.062627 C 195.731121 215.916794 196.439455 209.151168 197.86133 198.760543 L 275.319668 198.760543 C 276.736335 198.760543 277.90821 198.724084 278.824877 198.645959 C 279.78321 198.573043 280.43946 198.531376 280.78321 198.531376 C 281.548835 198.380334 282.241543 197.994918 282.850919 197.380334 C 283.50196 196.422001 283.830085 195.484501 283.830085 194.562626 C 284.137377 193.604292 284.366544 192.109501 284.522794 190.07825 L 226.840498 190.07825 C 223.699873 190.07825 220.939456 190.041792 218.564456 189.963667 C 216.225914 189.885542 214.345706 189.770959 212.929039 189.619917 C 208.51758 189.119917 205.29883 188.010542 203.26758 186.281375 C 201.694663 184.406375 200.908205 181.739708 200.908205 178.291791 L 200.908205 175.474083 C 201.215497 173.901166 201.595705 171.583458 202.059247 168.515749 C 202.554038 165.44804 203.11133 161.557415 203.725913 156.838665 Z M 204.934247 148.385539 " stroke="#08070c" stroke-width="26.499262" stroke-opacity="1" stroke-miterlimit="4"/><g fill="#ede8dd" fill-opacity="1"><g transform="translate(129.611816, 225.820216)"><g><path d="M 8.65625 -62.71875 C 9.71875 -70.25 10.601562 -75.253906 11.3125 -77.734375 C 12.132812 -81.023438 13.488281 -83.4375 15.375 -84.96875 C 16.90625 -86.144531 19.257812 -86.910156 22.4375 -87.265625 C 23.726562 -87.503906 25.460938 -87.625 27.640625 -87.625 C 29.828125 -87.625 32.507812 -87.625 35.6875 -87.625 L 101.21875 -87.625 C 100.164062 -79.613281 99.164062 -74.253906 98.21875 -71.546875 C 97.15625 -68.242188 95.390625 -65.945312 92.921875 -64.65625 C 92.210938 -64.300781 91.414062 -64.035156 90.53125 -63.859375 C 89.65625 -63.679688 88.566406 -63.476562 87.265625 -63.25 C 85.148438 -62.894531 81.207031 -62.71875 75.4375 -62.71875 L 40.8125 -62.71875 C 39.632812 -62.71875 38.601562 -62.71875 37.71875 -62.71875 C 36.832031 -62.71875 36.210938 -62.65625 35.859375 -62.53125 C 35.035156 -62.53125 34.445312 -62.238281 34.09375 -61.65625 C 33.851562 -61.414062 33.617188 -60.882812 33.390625 -60.0625 C 33.390625 -59.59375 33.210938 -58.359375 32.859375 -56.359375 L 71.71875 -56.359375 C 75.25 -56.359375 78.160156 -56.359375 80.453125 -56.359375 C 82.753906 -56.359375 84.4375 -56.238281 85.5 -56 C 89.269531 -55.644531 91.800781 -54.703125 93.09375 -53.171875 C 94.269531 -51.878906 94.859375 -49.582031 94.859375 -46.28125 L 94.859375 -45.21875 C 94.859375 -44.164062 94.738281 -42.488281 94.5 -40.1875 C 94.269531 -37.894531 93.921875 -34.976562 93.453125 -31.4375 L 92.5625 -24.90625 C 92.09375 -21.019531 91.59375 -17.8125 91.0625 -15.28125 C 90.53125 -12.75 90.085938 -10.835938 89.734375 -9.546875 C 89.035156 -7.066406 88.210938 -5.238281 87.265625 -4.0625 C 85.847656 -2.644531 83.847656 -1.585938 81.265625 -0.890625 C 80.085938 -0.765625 78.023438 -0.613281 75.078125 -0.4375 C 72.128906 -0.257812 68.421875 -0.171875 63.953125 -0.171875 L 25.078125 -0.171875 C 20.492188 -0.171875 16.785156 -0.257812 13.953125 -0.4375 C 11.128906 -0.613281 9.066406 -0.765625 7.765625 -0.890625 C 5.535156 -1.585938 3.945312 -2.523438 3 -3.703125 C 2.175781 -5.003906 1.765625 -7.007812 1.765625 -9.71875 C 1.765625 -12.070312 2.296875 -17.132812 3.359375 -24.90625 L 61.46875 -24.90625 C 62.53125 -24.90625 63.414062 -24.929688 64.125 -24.984375 C 64.832031 -25.046875 65.304688 -25.078125 65.546875 -25.078125 C 66.128906 -25.203125 66.65625 -25.5 67.125 -25.96875 C 67.601562 -26.675781 67.84375 -27.382812 67.84375 -28.09375 C 68.070312 -28.789062 68.242188 -29.90625 68.359375 -31.4375 L 25.078125 -31.4375 C 22.722656 -31.4375 20.660156 -31.46875 18.890625 -31.53125 C 17.128906 -31.59375 15.71875 -31.679688 14.65625 -31.796875 C 11.363281 -32.148438 8.953125 -32.972656 7.421875 -34.265625 C 6.242188 -35.679688 5.65625 -37.6875 5.65625 -40.28125 L 5.65625 -42.390625 C 5.882812 -43.566406 6.175781 -45.300781 6.53125 -47.59375 C 6.882812 -49.894531 7.296875 -52.816406 7.765625 -56.359375 Z M 8.65625 -62.71875 "/></g></g></g></svg>