<svg xmlns="http://www.w3.org/2000/svg" xmlns:xlink="http://www.w3.org/1999/xlink" width="48" zoomAndPan="magnify" viewBox="0 0 36 36.000001" height="48" preserveAspectRatio="xMidYMid meet" version="1.0"><defs><g/><clipPath id="ffa6340f90"><path d="M 0.488281 0 L 35.511719 0 L 35.511719 35.027344 L 0.488281 35.027344 Z M 0.488281 0 " clip-rule="nonzero"/></clipPath></defs><g clip-path="url(#ffa6340f90)"><path stroke-linecap="butt" transform="matrix(0.20867, 0, 0, 0.20867, -37.233468, -18.148061)" fill="none" stroke-linejoin="miter" d="M 204.9394 148.389599 C 206.34338 138.337097 207.522724 131.672869 208.439992 128.378194 C 209.544456 123.960335 211.360271 120.740539 213.849997 118.718806 C 215.909169 117.146348 219.054086 116.135482 223.284748 115.667488 C 225.006964 115.330533 227.328212 115.143336 230.229773 115.143336 C 233.150052 115.143336 236.706804 115.143336 240.937466 115.143336 L 328.339946 115.143336 C 326.917246 125.851029 325.569424 133.00197 324.315202 136.596161 C 322.929941 141.014021 320.571253 144.084058 317.239139 145.806275 C 316.321871 146.255549 315.273566 146.611224 314.075502 146.835861 C 312.896158 147.060498 311.436018 147.360013 309.713802 147.696969 C 306.90584 148.164962 301.664312 148.389599 293.951778 148.389599 L 247.770172 148.389599 C 246.197713 148.389599 244.831172 148.389599 243.633109 148.389599 C 242.491204 148.389599 241.667536 148.464478 241.162103 148.614236 C 240.095077 148.614236 239.327568 149.007351 238.859574 149.77486 C 238.522619 150.111816 238.185663 150.823166 237.886147 151.890191 C 237.886147 152.545382 237.661511 154.19272 237.193517 156.832204 L 289.009766 156.832204 C 293.727141 156.832204 297.620848 156.832204 300.672166 156.832204 C 303.742204 156.832204 305.969853 157.019401 307.355114 157.356356 C 312.409445 157.82435 315.797718 159.059853 317.519935 161.100305 C 319.092393 162.822521 319.878622 165.892559 319.878622 170.291699 L 319.878622 171.67696 C 319.878622 173.09966 319.710145 175.346029 319.373189 178.397348 C 319.054954 181.467385 318.60568 185.361092 317.987928 190.078467 L 316.771145 198.764428 C 316.172113 203.968517 315.498203 208.274058 314.768133 211.643611 C 314.075502 215.013165 313.49519 217.55905 313.045916 219.299986 C 312.091209 222.594661 310.968025 225.028228 309.713802 226.600686 C 307.823108 228.472661 305.164904 229.895361 301.720472 230.850068 C 300.148013 230.999826 297.377491 231.187023 293.427625 231.43038 C 289.515199 231.655017 284.591907 231.767335 278.657748 231.767335 L 226.841499 231.767335 C 220.701423 231.767335 215.740691 231.655017 211.940583 231.43038 C 208.196635 231.187023 205.444833 230.999826 203.722616 230.850068 C 200.727457 229.895361 198.630846 228.622418 197.395343 227.04996 C 196.290878 225.327744 195.729286 222.66954 195.729286 219.05663 C 195.729286 215.911713 196.440636 209.153886 197.863337 198.764428 L 275.325634 198.764428 C 276.729615 198.764428 277.908958 198.726989 278.826226 198.65211 C 279.780933 198.577231 280.436124 198.539791 280.773079 198.539791 C 281.540589 198.371314 282.233219 197.996919 282.850971 197.379167 C 283.506162 196.42446 283.824397 195.488473 283.824397 194.571206 C 284.142633 193.597779 284.36727 192.118919 284.517028 190.078467 L 226.841499 190.078467 C 223.696582 190.078467 220.94478 190.041028 218.567373 189.966149 C 216.227405 189.89127 214.336711 189.778951 212.93273 189.610474 C 208.51487 189.12376 205.295075 188.000576 203.273342 186.278359 C 201.700884 184.406385 200.914655 181.748182 200.914655 178.285029 L 200.914655 175.477068 C 201.214171 173.904609 201.607285 171.583361 202.056559 168.513323 C 202.561992 165.443285 203.104865 161.549579 203.722616 156.832204 Z M 204.9394 148.389599 " stroke="#08070c" stroke-width="26.499262" stroke-opacity="1" stroke-miterlimit="4"/></g><g fill="#ede8dd" fill-opacity="1"><g transform="translate(3.118106, 30.263394)"><g><path d="M 2.40625 -17.453125 C 2.695312 -19.546875 2.941406 -20.9375 3.140625 -21.625 C 3.367188 -22.539062 3.75 -23.210938 4.28125 -23.640625 C 4.707031 -23.972656 5.363281 -24.1875 6.25 -24.28125 C 6.601562 -24.34375 7.082031 -24.375 7.6875 -24.375 C 8.300781 -24.375 9.046875 -24.375 9.921875 -24.375 L 28.171875 -24.375 C 27.867188 -22.144531 27.585938 -20.65625 27.328125 -19.90625 C 27.035156 -18.988281 26.546875 -18.347656 25.859375 -17.984375 C 25.660156 -17.890625 25.4375 -17.816406 25.1875 -17.765625 C 24.945312 -17.722656 24.644531 -17.664062 24.28125 -17.59375 C 23.6875 -17.5 22.585938 -17.453125 20.984375 -17.453125 L 11.359375 -17.453125 C 11.023438 -17.453125 10.734375 -17.453125 10.484375 -17.453125 C 10.242188 -17.453125 10.078125 -17.4375 9.984375 -17.40625 C 9.753906 -17.40625 9.585938 -17.320312 9.484375 -17.15625 C 9.421875 -17.09375 9.359375 -16.945312 9.296875 -16.71875 C 9.296875 -16.582031 9.242188 -16.238281 9.140625 -15.6875 L 19.953125 -15.6875 C 20.941406 -15.6875 21.753906 -15.6875 22.390625 -15.6875 C 23.023438 -15.6875 23.492188 -15.648438 23.796875 -15.578125 C 24.835938 -15.484375 25.539062 -15.222656 25.90625 -14.796875 C 26.226562 -14.429688 26.390625 -13.789062 26.390625 -12.875 L 26.390625 -12.578125 C 26.390625 -12.285156 26.359375 -11.816406 26.296875 -11.171875 C 26.234375 -10.535156 26.132812 -9.726562 26 -8.75 L 25.765625 -6.9375 C 25.628906 -5.851562 25.488281 -4.957031 25.34375 -4.25 C 25.195312 -3.539062 25.070312 -3.007812 24.96875 -2.65625 C 24.769531 -1.96875 24.539062 -1.457031 24.28125 -1.125 C 23.882812 -0.738281 23.328125 -0.445312 22.609375 -0.25 C 22.285156 -0.21875 21.710938 -0.175781 20.890625 -0.125 C 20.066406 -0.0703125 19.035156 -0.046875 17.796875 -0.046875 L 6.984375 -0.046875 C 5.703125 -0.046875 4.664062 -0.0703125 3.875 -0.125 C 3.09375 -0.175781 2.519531 -0.21875 2.15625 -0.25 C 1.539062 -0.445312 1.097656 -0.707031 0.828125 -1.03125 C 0.597656 -1.394531 0.484375 -1.953125 0.484375 -2.703125 C 0.484375 -3.359375 0.632812 -4.769531 0.9375 -6.9375 L 17.109375 -6.9375 C 17.398438 -6.9375 17.644531 -6.941406 17.84375 -6.953125 C 18.039062 -6.972656 18.171875 -6.984375 18.234375 -6.984375 C 18.398438 -7.015625 18.546875 -7.09375 18.671875 -7.21875 C 18.804688 -7.414062 18.875 -7.613281 18.875 -7.8125 C 18.9375 -8.007812 18.988281 -8.320312 19.03125 -8.75 L 6.984375 -8.75 C 6.328125 -8.75 5.75 -8.753906 5.25 -8.765625 C 4.757812 -8.785156 4.367188 -8.8125 4.078125 -8.84375 C 3.160156 -8.945312 2.488281 -9.175781 2.0625 -9.53125 C 1.738281 -9.925781 1.578125 -10.484375 1.578125 -11.203125 L 1.578125 -11.796875 C 1.640625 -12.117188 1.71875 -12.597656 1.8125 -13.234375 C 1.914062 -13.878906 2.03125 -14.695312 2.15625 -15.6875 Z M 2.40625 -17.453125 "/></g></g></g></svg>